<mxfile host="app.diagrams.net" modified="2023-02-09T02:23:45.112Z" agent="5.0 (X11; Linux x86_64) AppleWebKit/537.36 (KHTML, like Gecko) Chrome/108.0.0.0 Safari/537.36" etag="NTaIIn8HCsbd-PGVst-n" version="20.8.13" type="github">
  <diagram name="Page-1" id="4BlTLEbdjdqgsL3DBFCK">
    <mxGraphModel dx="1376" dy="865" grid="1" gridSize="10" guides="1" tooltips="1" connect="1" arrows="1" fold="1" page="1" pageScale="1" pageWidth="827" pageHeight="1169" math="0" shadow="0">
      <root>
        <mxCell id="0" />
        <mxCell id="1" parent="0" />
        <mxCell id="W9j0-ISzu8--RID8e9Z--1" value="&lt;font style=&quot;font-size: 18px;&quot; face=&quot;Comic Sans MS&quot;&gt;4KB&lt;/font&gt;" style="rounded=0;whiteSpace=wrap;html=1;fillColor=#f5f5f5;fontColor=#333333;strokeColor=#666666;" vertex="1" parent="1">
          <mxGeometry x="70" y="90" width="120" height="60" as="geometry" />
        </mxCell>
        <mxCell id="W9j0-ISzu8--RID8e9Z--2" value="" style="rounded=0;whiteSpace=wrap;html=1;" vertex="1" parent="1">
          <mxGeometry x="190" y="90" width="120" height="60" as="geometry" />
        </mxCell>
        <mxCell id="W9j0-ISzu8--RID8e9Z--3" value="" style="rounded=0;whiteSpace=wrap;html=1;" vertex="1" parent="1">
          <mxGeometry x="430" y="90" width="120" height="60" as="geometry" />
        </mxCell>
        <mxCell id="W9j0-ISzu8--RID8e9Z--4" value="" style="rounded=0;whiteSpace=wrap;html=1;" vertex="1" parent="1">
          <mxGeometry x="310" y="90" width="120" height="60" as="geometry" />
        </mxCell>
        <mxCell id="W9j0-ISzu8--RID8e9Z--5" value="" style="endArrow=classic;html=1;rounded=0;fontFamily=Comic Sans MS;fontSize=18;" edge="1" parent="1">
          <mxGeometry width="50" height="50" relative="1" as="geometry">
            <mxPoint x="430" y="210" as="sourcePoint" />
            <mxPoint x="430" y="150" as="targetPoint" />
          </mxGeometry>
        </mxCell>
        <mxCell id="W9j0-ISzu8--RID8e9Z--6" value="" style="endArrow=classic;html=1;rounded=0;fontFamily=Comic Sans MS;fontSize=18;" edge="1" parent="1">
          <mxGeometry width="50" height="50" relative="1" as="geometry">
            <mxPoint x="71" y="211" as="sourcePoint" />
            <mxPoint x="71" y="151" as="targetPoint" />
          </mxGeometry>
        </mxCell>
        <mxCell id="W9j0-ISzu8--RID8e9Z--7" value="" style="endArrow=classic;html=1;rounded=0;fontFamily=Comic Sans MS;fontSize=18;entryX=0.449;entryY=-0.073;entryDx=0;entryDy=0;entryPerimeter=0;" edge="1" parent="1">
          <mxGeometry width="50" height="50" relative="1" as="geometry">
            <mxPoint x="124" y="30" as="sourcePoint" />
            <mxPoint x="123.88000000000011" y="89.62" as="targetPoint" />
          </mxGeometry>
        </mxCell>
        <mxCell id="W9j0-ISzu8--RID8e9Z--8" value="ph-&amp;gt;p_vaddr" style="text;html=1;strokeColor=none;fillColor=none;align=center;verticalAlign=middle;whiteSpace=wrap;rounded=0;fontSize=18;fontFamily=Comic Sans MS;" vertex="1" parent="1">
          <mxGeometry x="70" width="100" height="30" as="geometry" />
        </mxCell>
        <mxCell id="W9j0-ISzu8--RID8e9Z--9" value="c-&amp;gt;mapstart" style="text;html=1;strokeColor=none;fillColor=none;align=center;verticalAlign=middle;whiteSpace=wrap;rounded=0;fontSize=18;fontFamily=Comic Sans MS;" vertex="1" parent="1">
          <mxGeometry x="20" y="205" width="100" height="30" as="geometry" />
        </mxCell>
        <mxCell id="W9j0-ISzu8--RID8e9Z--10" value="" style="endArrow=classic;html=1;rounded=0;fontFamily=Comic Sans MS;fontSize=18;entryX=0.449;entryY=-0.073;entryDx=0;entryDy=0;entryPerimeter=0;" edge="1" parent="1">
          <mxGeometry width="50" height="50" relative="1" as="geometry">
            <mxPoint x="400.12" y="30" as="sourcePoint" />
            <mxPoint x="400.0000000000001" y="89.62" as="targetPoint" />
          </mxGeometry>
        </mxCell>
        <mxCell id="W9j0-ISzu8--RID8e9Z--11" value="c-&amp;gt;dataend" style="text;html=1;strokeColor=none;fillColor=none;align=center;verticalAlign=middle;whiteSpace=wrap;rounded=0;fontSize=18;fontFamily=Comic Sans MS;" vertex="1" parent="1">
          <mxGeometry x="346" width="100" height="30" as="geometry" />
        </mxCell>
        <mxCell id="W9j0-ISzu8--RID8e9Z--15" value="c-&amp;gt;mapend" style="text;html=1;strokeColor=none;fillColor=none;align=center;verticalAlign=middle;whiteSpace=wrap;rounded=0;fontSize=18;fontFamily=Comic Sans MS;" vertex="1" parent="1">
          <mxGeometry x="380" y="200" width="100" height="30" as="geometry" />
        </mxCell>
        <mxCell id="W9j0-ISzu8--RID8e9Z--16" value="" style="endArrow=classic;startArrow=classic;html=1;rounded=0;fontFamily=Comic Sans MS;fontSize=18;dashed=1;" edge="1" parent="1">
          <mxGeometry width="50" height="50" relative="1" as="geometry">
            <mxPoint x="125" y="76" as="sourcePoint" />
            <mxPoint x="400" y="76" as="targetPoint" />
          </mxGeometry>
        </mxCell>
        <mxCell id="W9j0-ISzu8--RID8e9Z--18" value="ph-&amp;gt;p_filesz" style="text;html=1;strokeColor=none;fillColor=none;align=center;verticalAlign=middle;whiteSpace=wrap;rounded=0;fontSize=18;fontFamily=Comic Sans MS;" vertex="1" parent="1">
          <mxGeometry x="210" y="49" width="100" height="30" as="geometry" />
        </mxCell>
        <mxCell id="W9j0-ISzu8--RID8e9Z--19" value="" style="endArrow=classic;html=1;rounded=0;fontFamily=Comic Sans MS;fontSize=18;entryX=0.449;entryY=-0.073;entryDx=0;entryDy=0;entryPerimeter=0;" edge="1" parent="1">
          <mxGeometry width="50" height="50" relative="1" as="geometry">
            <mxPoint x="513.1199999999999" y="28" as="sourcePoint" />
            <mxPoint x="513" y="87.62" as="targetPoint" />
          </mxGeometry>
        </mxCell>
        <mxCell id="W9j0-ISzu8--RID8e9Z--20" value="c-&amp;gt;allocend" style="text;html=1;strokeColor=none;fillColor=none;align=center;verticalAlign=middle;whiteSpace=wrap;rounded=0;fontSize=18;fontFamily=Comic Sans MS;" vertex="1" parent="1">
          <mxGeometry x="458" y="2" width="100" height="30" as="geometry" />
        </mxCell>
        <mxCell id="W9j0-ISzu8--RID8e9Z--21" value="" style="endArrow=classic;startArrow=classic;html=1;rounded=0;fontFamily=Comic Sans MS;fontSize=18;dashed=1;" edge="1" parent="1">
          <mxGeometry width="50" height="50" relative="1" as="geometry">
            <mxPoint x="126" y="49" as="sourcePoint" />
            <mxPoint x="510" y="49" as="targetPoint" />
          </mxGeometry>
        </mxCell>
        <mxCell id="W9j0-ISzu8--RID8e9Z--22" value="ph-&amp;gt;p_memsz" style="text;html=1;strokeColor=none;fillColor=none;align=center;verticalAlign=middle;whiteSpace=wrap;rounded=0;fontSize=18;fontFamily=Comic Sans MS;" vertex="1" parent="1">
          <mxGeometry x="256" y="23" width="114" height="30" as="geometry" />
        </mxCell>
      </root>
    </mxGraphModel>
  </diagram>
</mxfile>
